<svg version="1.1" id="Icons" xmlns="http://www.w3.org/2000/svg" xmlns:xlink="http://www.w3.org/1999/xlink" x="0px" y="0px" viewBox="0 0 32 32" style="enable-background:new 0 0 32 32;" xml:space="preserve">
<style type="text/css">
	.st0{fill:none;stroke:#000000;stroke-width:2;stroke-linecap:round;stroke-linejoin:round;stroke-miterlimit:10;}
</style>
<g>
	<path d="M16,12H3c-0.6,0-1,0.4-1,1v9c0,0.6,0.4,1,1,1h13c0.6,0,1-0.4,1-1v-9C17,12.4,16.6,12,16,12z" id="id_101" style="fill: rgb(22, 155, 222);"></path>
	<path d="M13,25H6c-0.6,0-1,0.4-1,1s0.4,1,1,1h7c0.6,0,1-0.4,1-1S13.6,25,13,25z" id="id_102" style="fill: rgb(136, 200, 232);"></path>
	<path d="M29,5H19c-0.6,0-1,0.4-1,1v20c0,0.6,0.4,1,1,1h10c0.6,0,1-0.4,1-1V6C30,5.4,29.6,5,29,5z M28,7v9h-8V7H28z" id="id_103" style="fill: rgb(21, 153, 219);"></path>
	<path d="M22,11h4c0.6,0,1-0.4,1-1s-0.4-1-1-1h-4c-0.6,0-1,0.4-1,1S21.4,11,22,11z" id="id_104" style="fill: rgb(133, 198, 230);"></path>
	<path d="M26,12h-1c-0.6,0-1,0.4-1,1s0.4,1,1,1h1c0.6,0,1-0.4,1-1S26.6,12,26,12z" id="id_105" style="fill: rgb(138, 203, 235);"></path>
</g>
</svg>